{"title":"Coolbeaty - Ameri ichinose 720p","uid":6958147,"size":1035084313,"categoryP":"porn","categoryS":"hd___movies","magnet":"?xt=urn:btih:8ca52d7eb2d3ddd3a8cae95b6ffaae76037c7b4d&amp;dn=Coolbeaty+-+Ameri+ichinose+720p&amp;tr=udp%3A%2F%2Ftracker.openbittorrent.com%3A80&amp;tr=udp%3A%2F%2Fopen.demonii.com%3A1337&amp;tr=udp%3A%2F%2Ftracker.coppersurfer.tk%3A6969&amp;tr=udp%3A%2F%2Fexodus.desync.com%3A6969","seeders":1,"leechers":0,"uploader":"cywin","files":-1,"time":1326661460,"description":"Coolbeaty - Ameri ichinose 720 \n\n.....................................GENERAL INFO..................................\n\n\n\nFormat : MPEG-4 \nFormat profile : JVT \nCodec ID : avc1 \nFile size : 977 MiB \nDuration : 51mn 56s \nOverall bit rate mode : Variable \nOverall bit rate : 2 631 Kbps \nEncoded date : UTC 2011-08-08 19:43:35 \nTagged date : UTC 2011-08-08 19:43:35 \n\n\n\n.......................................VIDEO.......................................\n\n\n\nFormat : AVC \nFormat/Info : Advanced Video Codec \nFormat profile : &lt;a class=&quot;__cf_email__&quot; href=&quot;/cdn-cgi/l/email-protection&quot; data-cfemail=&quot;a8e5c9c1c6e8e49b8698&quot;&gt;[email&amp;#160;protected]&lt;/a&gt;&lt;script cf-hash='f9e31' type=&quot;text/javascript&quot;&gt;\n/* &lt;![CDATA[ */!function(){try{var t=&quot;currentScript&quot;in document?document.currentScript:function(){for(var t=document.getElementsByTagName(&quot;script&quot;),e=t.length;e--;)if(t[e].getAttribute(&quot;cf-hash&quot;))return t[e]}();if(t&amp;&amp;t.previousSibling){var e,r,n,i,c=t.previousSibling,a=c.getAttribute(&quot;data-cfemail&quot;);if(a){for(e=&quot;&quot;,r=parseInt(a.substr(0,2),16),n=2;a.length-n;n+=2)i=parseInt(a.substr(n,2),16)^r,e+=String.fromCharCode(i);e=document.createTextNode(e),c.parentNode.replaceChild(e,c)}}}catch(u){}}();/* ]]&gt; */&lt;/script&gt; \nFormat settings, CABAC : Yes \nFormat settings, ReFrames : 2 frames \nCodec ID : avc1 \nCodec ID/Info : Advanced Video Coding \nDuration : 51mn 56s \nBit rate : 2 500 Kbps \nMaximum bit rate : 6 736 Kbps \nWidth : 1 280 pixels \nHeight : 720 pixels \nDisplay aspect ratio : 16:9 \nFrame rate mode : Constant \nFrame rate : 29.970 fps \nColor space : YUV \nChroma subsampling : 4:2:0 \nBit depth : 8 bits \nScan type : Progressive \nBits/(Pixel*Frame) : 0.091 \nStream size : 929 MiB (95%) \n\n........................................AUDIO......................................\n\n\nFormat : AAC \nFormat/Info : Advanced Audio Codec \nFormat profile : LC \nCodec ID : 40 \nDuration : 51mn 56s \nBit rate mode : Variable \nBit rate : 127 Kbps \nMaximum bit rate : 141 Kbps \nChannel(s) : 2 channels \nChannel positions : Front: L R \nSampling rate : 48.0 KHz \nCompression mode : Lossy \nStream size : 47.1 MiB (5%) \nEncoded date : UTC 2011-08-08 21:06:21 \nTagged date : UTC 2011-08-08 21:06:23 \n\n","torrent":{"xt":"urn:btih:8ca52d7eb2d3ddd3a8cae95b6ffaae76037c7b4d","amp;dn":"Coolbeaty+-+Ameri+ichinose+720p","amp;tr":["udp%3A%2F%2Ftracker.openbittorrent.com%3A80","udp%3A%2F%2Fopen.demonii.com%3A1337","udp%3A%2F%2Ftracker.coppersurfer.tk%3A6969","udp%3A%2F%2Fexodus.desync.com%3A6969"],"infoHash":"8ca52d7eb2d3ddd3a8cae95b6ffaae76037c7b4d","infoHashBuffer":{"type":"Buffer","data":[140,165,45,126,178,211,221,211,168,202,233,91,111,250,174,118,3,124,123,77]},"announce":[],"urlList":[]}}